# xmcd CD database file
#
# Track frame offsets:
#	150
#	12600
#	22167
#	31012
#	38212
#	49109
#	59816
#	71116
#	85212
#	97229
#	108198
#	120309
#	132429
#	143472
#	154387
#	166126
#	177229
#	187033
#	197259
#	205889
#
# Disc length: 2900 seconds
#
# Revision: 0
# Processed by: cddbd v1.5.2PL0 Copyright (c) Steve Scherf et al.
# Submitted via: jetAudio 7
#
DISCID=1c0b5214
DTITLE=Chet Atkins - Zing! Went The Strings Of My Heart
DYEAR=1900
DGENRE=Country
TTITLE0=Zing! Went The Strings Of My Heart
TTITLE1=One Mint Julep
TTITLE2=The Poor People Of Paris
TTITLE3=I'm Forever Blowing Bubbles
TTITLE4=April In Portugal
TTITLE5=Meet Mister Callaghan
TTITLE6=Hidden Charm
TTITLE7=The Terry Theme From ''Limelight''
TTITLE8=Lullaby Of The Leaves
TTITLE9=Cecilia
TTITLE10=Greensleeves
TTITLE11=Concerto In C Minor
TTITLE12=Unchained Melody
TTITLE13=Walk Don't Run
TTITLE14=Martinique
TTITLE15=Show Me The Way To Go Home
TTITLE16=Somebody Stole My Gal
TTITLE17=Little Old Lady
TTITLE18=Country Gentleman
TTITLE19=Goodnight Irene
EXTD=
EXTT0=
EXTT1=
EXTT2=
EXTT3=
EXTT4=
EXTT5=
EXTT6=
EXTT7=
EXTT8=
EXTT9=
EXTT10=
EXTT11=
EXTT12=
EXTT13=
EXTT14=
EXTT15=
EXTT16=
EXTT17=
EXTT18=
EXTT19=
PLAYORDER=
